<svg version="1" xmlns="http://www.w3.org/2000/svg" width="960" height="960" viewBox="0 0 720.000000 720.000000"><path d="M354.8 7.5c-.2.1-4.2.5-8.9.8-31.6 2.3-68.7 11.8-98.9 25.4-49.4 22.2-93.5 58.6-124.6 102.8-26.9 38.2-46.1 85.8-51.9 128.5-.3 2.5-.8 5.2-1 6-1.2 4.4-2 20.1-2 40.5 0 25.9.6 33.3 4.2 54.5 4.8 28.2 17.6 64.3 32.2 91.1 6.1 11 18.9 31.1 22.7 35.6 1.1 1.2 2.8 3.4 3.9 4.9 6.6 9.1 18.3 22.2 31.5 35.2 15.1 15 86.6 84.5 102.6 99.8 3.4 3.3 15.2 14.7 26.4 25.4 11.1 10.7 23.2 22.4 26.8 25.9 3.7 3.5 11.9 11.4 18.2 17.5 20.7 19.9 18.7 18.6 28.5 18.6h8.5l7.7-7.3c9.9-9.4 16-15.3 56.8-55.2 35.9-35.2 39.7-38.8 83.9-81.9 50-48.5 70-68.5 77.1-77.2 28-34.4 46.9-70.3 58.9-111.9 2.4-8.1 2.6-10.5 2.6-26.7 0-17.8 0-17.8-2.2-17.9-1.3 0-4.5-.2-7.3-.3-2.7-.2-11.7-.7-20-1.1-8.2-.3-16.6-.8-18.5-1-1.9-.2-10.2-.6-18.5-1-8.2-.4-15.3-.9-15.8-1.2-.8-.5-2.3 3.1-3 7.3-1.7 10.3-7.4 28.9-13.4 43.4-18.5 45.2-56.7 85.6-101.9 107.9-9 4.4-25.7 11.1-29.3 11.8-1.3.2-3.1.8-4 1.2-3.1 1.6-23.7 6-35.1 7.6-21.3 2.8-52.7 1.2-75.5-3.8-21.3-4.8-49.3-16.7-67.8-29-30-20-54.9-47.2-70.9-77.7-3.9-7.5-6.1-12.1-11.3-24.5-4.8-11.3-11.5-38.5-13.1-53-1-8.9-1.1-39.1-.2-47 9.4-80 60.5-146.8 135.1-176.4 7.1-2.8 25.5-8.5 30.7-9.5 1.4-.2 6.3-1.1 11-2 4.7-.9 12.6-2 17.5-2.4 9.1-.9 37.9-.7 42.5.2 1.3.3 4.2.8 6.5 1.1 7.2 1.1 20.2 3.6 23.7 4.6 1.8.6 5.7 1.7 8.6 2.5 7.6 2 26 9.7 37.5 15.6 12.2 6.3 26.8 16 37.2 24.8 9.4 7.9 22 20.6 22 22.2 0 1.1-1.7 2.3-58.5 40.8-19 12.8-37.9 25.6-42 28.5-4.1 2.8-17 11.5-28.6 19.3l-21 14.2-9 .4c-7.6.3-10 .8-15.4 3.4-29.9 14.4-29.9 56.1-.1 70.3 23.1 11 50.3-3.2 55-28.8 1-5.1.8-4.9 19.6-21.8 5.5-5 10.5-9.5 11.1-10 8.7-7.9 19.1-17.3 20.4-18.5.9-.8 5.7-5.1 10.5-9.5s9.3-8.5 9.9-9c1-.9 20.4-18.4 23.2-21 .6-.6 4.6-4.2 8.9-8 4.3-3.9 8.8-7.9 10-9 1.1-1.1 8.3-7.6 16-14.4 7.7-6.9 14.5-12.9 15-13.5 1.1-1.3 16.9-15.5 29-26.1 7.3-6.5 10.8-9.6 23.9-21.3 2.6-2.3 5.1-4.2 5.7-4.2 1.7 0 .9-1.7-3.3-7.1-7.1-9-19.6-22-31.4-32.5-36.3-32.5-80.7-56-128.4-67.9-7.4-1.8-15.3-3.6-17.5-3.9-2.2-.4-6.5-1.1-9.5-1.6-5.6-1-10-1.5-20.5-2.6-5.6-.6-42.2-1.3-42.7-.9z"/></svg>